<svg width="170" height="56" viewBox="0 0 170 56" fill="none" xmlns="http://www.w3.org/2000/svg">
<path d="M31.8034 26.9132C30.4114 26.9132 29.1874 26.6332 28.1314 26.0732C27.0754 25.5052 26.2514 24.7092 25.6594 23.6852C25.0674 22.6612 24.7714 21.4572 24.7714 20.0732V9.29722L28.0834 9.27322V20.0492C28.0834 20.6172 28.1794 21.1332 28.3714 21.5972C28.5634 22.0612 28.8274 22.4612 29.1634 22.7972C29.5074 23.1332 29.9034 23.3932 30.3514 23.5772C30.8074 23.7532 31.2914 23.8412 31.8034 23.8412C32.3314 23.8412 32.8194 23.7492 33.2674 23.5652C33.7234 23.3812 34.1194 23.1212 34.4554 22.7852C34.7914 22.4492 35.0514 22.0492 35.2354 21.5852C35.4274 21.1212 35.5234 20.6092 35.5234 20.0492V9.27322H38.8354V20.0732C38.8354 21.4572 38.5394 22.6612 37.9474 23.6852C37.3554 24.7092 36.5314 25.5052 35.4754 26.0732C34.4194 26.6332 33.1954 26.9132 31.8034 26.9132ZM40.7455 26.5532L46.5535 17.8172L40.9135 9.27322H44.9215L48.5935 15.0332L52.2175 9.27322H56.2495L50.6095 17.8172L56.3935 26.5532H52.3855L48.5935 20.6012L44.7775 26.5532H40.7455ZM58.3105 26.5532V9.27322H63.9025C64.0385 9.27322 64.3185 9.27722 64.7425 9.28522C65.1665 9.29322 65.5745 9.32122 65.9665 9.36922C67.3585 9.53722 68.5385 10.0212 69.5065 10.8212C70.4745 11.6212 71.2105 12.6372 71.7145 13.8692C72.2185 15.1012 72.4705 16.4492 72.4705 17.9132C72.4705 19.3772 72.2185 20.7252 71.7145 21.9572C71.2105 23.1892 70.4745 24.2052 69.5065 25.0052C68.5385 25.8052 67.3585 26.2892 65.9665 26.4572C65.5745 26.5052 65.1665 26.5332 64.7425 26.5412C64.3185 26.5492 64.0385 26.5532 63.9025 26.5532H58.3105ZM61.6225 23.4812H63.9025C64.1185 23.4812 64.4105 23.4772 64.7785 23.4692C65.1465 23.4532 65.4785 23.4172 65.7745 23.3612C66.5265 23.2092 67.1385 22.8572 67.6105 22.3052C68.0905 21.7532 68.4425 21.0892 68.6665 20.3132C68.8985 19.5372 69.0145 18.7372 69.0145 17.9132C69.0145 17.0492 68.8945 16.2292 68.6545 15.4532C68.4225 14.6772 68.0665 14.0212 67.5865 13.4852C67.1065 12.9492 66.5025 12.6092 65.7745 12.4652C65.4785 12.4012 65.1465 12.3652 64.7785 12.3572C64.4105 12.3492 64.1185 12.3452 63.9025 12.3452H61.6225V23.4812ZM75.3495 26.5532V9.27322H86.6295V12.3212H78.6135V16.0172H85.1895V19.0652H78.6135V23.5052H86.6295V26.5532H75.3495ZM96.0338 26.9132C94.7538 26.9132 93.5978 26.6892 92.5658 26.2412C91.5418 25.7852 90.6978 25.1372 90.0338 24.2972C89.3778 23.4492 88.9618 22.4412 88.7858 21.2732L92.1938 20.7692C92.4338 21.7612 92.9298 22.5252 93.6818 23.0612C94.4338 23.5972 95.2898 23.8652 96.2498 23.8652C96.7858 23.8652 97.3058 23.7812 97.8098 23.6132C98.3138 23.4452 98.7258 23.1972 99.0458 22.8692C99.3738 22.5412 99.5378 22.1372 99.5378 21.6572C99.5378 21.4812 99.5098 21.3132 99.4538 21.1532C99.4058 20.9852 99.3218 20.8292 99.2018 20.6852C99.0818 20.5412 98.9098 20.4052 98.6858 20.2772C98.4698 20.1492 98.1938 20.0332 97.8578 19.9292L93.3698 18.6092C93.0338 18.5132 92.6418 18.3772 92.1938 18.2012C91.7538 18.0252 91.3258 17.7732 90.9098 17.4452C90.4938 17.1172 90.1458 16.6852 89.8658 16.1492C89.5938 15.6052 89.4578 14.9212 89.4578 14.0972C89.4578 12.9372 89.7498 11.9732 90.3338 11.2052C90.9178 10.4372 91.6978 9.86522 92.6738 9.48922C93.6498 9.11322 94.7298 8.92922 95.9138 8.93722C97.1058 8.95322 98.1698 9.15722 99.1058 9.54922C100.042 9.94122 100.826 10.5132 101.458 11.2652C102.09 12.0092 102.546 12.9212 102.826 14.0012L99.2978 14.6012C99.1698 14.0412 98.9338 13.5692 98.5898 13.1852C98.2458 12.8012 97.8338 12.5092 97.3538 12.3092C96.8818 12.1092 96.3858 12.0012 95.8658 11.9852C95.3538 11.9692 94.8698 12.0412 94.4138 12.2012C93.9658 12.3532 93.5978 12.5772 93.3098 12.8732C93.0298 13.1692 92.8898 13.5212 92.8898 13.9292C92.8898 14.3052 93.0058 14.6132 93.2378 14.8532C93.4698 15.0852 93.7618 15.2732 94.1138 15.4172C94.4658 15.5612 94.8258 15.6812 95.1938 15.7772L98.1938 16.5932C98.6418 16.7132 99.1378 16.8732 99.6818 17.0732C100.226 17.2652 100.746 17.5372 101.242 17.8892C101.746 18.2332 102.158 18.6892 102.478 19.2572C102.806 19.8252 102.97 20.5452 102.97 21.4172C102.97 22.3452 102.774 23.1572 102.382 23.8532C101.998 24.5412 101.478 25.1132 100.822 25.5692C100.166 26.0172 99.4218 26.3532 98.5898 26.5772C97.7658 26.8012 96.9138 26.9132 96.0338 26.9132ZM105.847 26.5532V9.27322H109.111V26.5532H105.847ZM119.909 26.9132C118.821 26.9132 117.785 26.7212 116.801 26.3372C115.817 25.9452 114.945 25.3692 114.185 24.6092C113.433 23.8492 112.837 22.9092 112.397 21.7892C111.965 20.6692 111.749 19.3772 111.749 17.9132C111.749 16.0012 112.113 14.3772 112.841 13.0412C113.577 11.6972 114.561 10.6732 115.793 9.96922C117.033 9.26522 118.405 8.91322 119.909 8.91322C122.133 8.91322 123.881 9.42922 125.153 10.4612C126.425 11.4932 127.277 12.9532 127.709 14.8412L124.373 15.3212C124.061 14.3132 123.549 13.5092 122.837 12.9092C122.133 12.3012 121.229 11.9932 120.125 11.9852C119.029 11.9692 118.117 12.2052 117.389 12.6932C116.661 13.1812 116.113 13.8732 115.745 14.7692C115.385 15.6652 115.205 16.7132 115.205 17.9132C115.205 19.1132 115.385 20.1532 115.745 21.0332C116.113 21.9132 116.661 22.5972 117.389 23.0852C118.117 23.5732 119.029 23.8252 120.125 23.8412C120.869 23.8572 121.541 23.7292 122.141 23.4572C122.749 23.1852 123.261 22.7572 123.677 22.1732C124.093 21.5892 124.389 20.8412 124.565 19.9292H121.829V17.4092H128.045C128.061 17.5132 128.073 17.6972 128.081 17.9612C128.089 18.2252 128.093 18.3772 128.093 18.4172C128.093 20.0732 127.757 21.5412 127.085 22.8212C126.413 24.1012 125.465 25.1052 124.241 25.8332C123.017 26.5532 121.573 26.9132 119.909 26.9132ZM130.498 26.5532V9.27322H133.81L141.322 20.7932V9.27322H144.634V26.5532H141.322L133.81 15.0332V26.5532H130.498Z" fill="white"/>
<path d="M26.2337 47.1807V37.1007H27.9417L31.2737 43.7927L34.6058 37.1007H36.3138V47.1807H34.5358V41.1607L31.6098 47.1807H30.9378L28.0118 41.1607V47.1807H26.2337ZM50.2487 47.1807L53.3287 37.1007H56.1707L59.2507 47.1807H57.2907L54.5467 38.2907H54.9107L52.2087 47.1807H50.2487ZM52.0967 45.0807V43.3027H57.4167V45.0807H52.0967ZM76.7099 47.3907C75.9632 47.3907 75.2889 47.26 74.6869 46.9987C74.0895 46.7327 73.5972 46.3547 73.2099 45.8647C72.8272 45.37 72.5845 44.782 72.4819 44.1007L74.4699 43.8067C74.6099 44.3853 74.8992 44.831 75.3379 45.1437C75.7765 45.4563 76.2759 45.6127 76.8359 45.6127C77.1485 45.6127 77.4519 45.5637 77.7459 45.4657C78.0399 45.3677 78.2802 45.223 78.4669 45.0317C78.6582 44.8403 78.7539 44.6047 78.7539 44.3247C78.7539 44.222 78.7375 44.124 78.7049 44.0307C78.6769 43.9327 78.6279 43.8417 78.5579 43.7577C78.4879 43.6737 78.3875 43.5943 78.2569 43.5197C78.1309 43.445 77.9699 43.3773 77.7739 43.3167L75.1559 42.5467C74.9599 42.4907 74.7312 42.4113 74.4699 42.3087C74.2132 42.206 73.9635 42.059 73.7209 41.8677C73.4782 41.6763 73.2752 41.4243 73.1119 41.1117C72.9532 40.7943 72.8739 40.3953 72.8739 39.9147C72.8739 39.238 73.0442 38.6757 73.3849 38.2277C73.7255 37.7797 74.1805 37.446 74.7499 37.2267C75.3192 37.0073 75.9492 36.9 76.6399 36.9047C77.3352 36.914 77.9559 37.033 78.5019 37.2617C79.0479 37.4903 79.5052 37.824 79.8739 38.2627C80.2425 38.6967 80.5085 39.2287 80.6719 39.8587L78.6139 40.2087C78.5392 39.882 78.4015 39.6067 78.2009 39.3827C78.0002 39.1587 77.7599 38.9883 77.4799 38.8717C77.2045 38.755 76.9152 38.692 76.6119 38.6827C76.3132 38.6733 76.0309 38.7153 75.7649 38.8087C75.5035 38.8973 75.2889 39.028 75.1209 39.2007C74.9575 39.3733 74.8759 39.5787 74.8759 39.8167C74.8759 40.036 74.9435 40.2157 75.0789 40.3557C75.2142 40.491 75.3845 40.6007 75.5899 40.6847C75.7952 40.7687 76.0052 40.8387 76.2199 40.8947L77.9699 41.3707C78.2312 41.4407 78.5205 41.534 78.8379 41.6507C79.1552 41.7627 79.4585 41.9213 79.7479 42.1267C80.0419 42.3273 80.2822 42.5933 80.4689 42.9247C80.6602 43.256 80.7559 43.676 80.7559 44.1847C80.7559 44.726 80.6415 45.1997 80.4129 45.6057C80.1889 46.007 79.8855 46.3407 79.5029 46.6067C79.1202 46.868 78.6862 47.064 78.2009 47.1947C77.7202 47.3253 77.2232 47.3907 76.7099 47.3907ZM97.3025 47.1807V38.8787H94.1245V37.1007H102.384V38.8787H99.2065V47.1807H97.3025ZM116.179 47.1807V37.1007H122.759V38.8787H118.083V41.0347H121.919V42.8127H118.083V45.4027H122.759V47.1807H116.179ZM137.107 47.1807V37.1007H141.363C141.461 37.1007 141.592 37.1053 141.755 37.1147C141.923 37.1193 142.073 37.1333 142.203 37.1567C142.805 37.25 143.298 37.4483 143.68 37.7517C144.068 38.055 144.352 38.4377 144.534 38.8997C144.716 39.357 144.807 39.868 144.807 40.4327C144.807 41.2773 144.597 42.0007 144.177 42.6027C143.757 43.2 143.099 43.5687 142.203 43.7087L141.363 43.7647H139.011V47.1807H137.107ZM142.791 47.1807L140.803 43.0787L142.763 42.7007L144.947 47.1807H142.791ZM139.011 41.9867H141.279C141.377 41.9867 141.485 41.982 141.601 41.9727C141.718 41.9633 141.825 41.9447 141.923 41.9167C142.18 41.8467 142.378 41.73 142.518 41.5667C142.658 41.3987 142.754 41.2143 142.805 41.0137C142.861 40.8083 142.889 40.6147 142.889 40.4327C142.889 40.2507 142.861 40.0593 142.805 39.8587C142.754 39.6533 142.658 39.469 142.518 39.3057C142.378 39.1377 142.18 39.0187 141.923 38.9487C141.825 38.9207 141.718 38.902 141.601 38.8927C141.485 38.8833 141.377 38.8787 141.279 38.8787H139.011V41.9867Z" fill="white"/>
</svg>
