<?xml version="1.0" standalone="no"?>
<!DOCTYPE svg PUBLIC "-//W3C//DTD SVG 20010904//EN"
 "http://www.w3.org/TR/2001/REC-SVG-20010904/DTD/svg10.dtd">
<svg version="1.0" xmlns="http://www.w3.org/2000/svg"
 width="4062.000000pt" height="4062.000000pt" viewBox="0 0 4062.000000 4062.000000"
 preserveAspectRatio="xMidYMid meet">
<metadata>
Created by potrace 1.14, written by Peter Selinger 2001-2017
</metadata>
<g transform="translate(0.000000,4062.000000) scale(0.100000,-0.100000)"
fill="#000000" stroke="none">
<path d="M1080 28869 c-82 -17 -225 -52 -240 -60 -8 -4 -51 -22 -95 -40 -165
-69 -368 -230 -488 -388 -120 -158 -206 -355 -241 -556 -12 -68 -14 -1169 -14
-7505 -1 -7720 -2 -7524 37 -7622 6 -16 8 -28 6 -28 -9 0 63 -188 95 -246 73
-137 123 -205 230 -313 175 -177 410 -302 665 -352 60 -12 2943 -14 19280 -14
18472 0 19213 1 19285 18 41 10 84 20 94 22 70 16 300 114 316 135 3 4 16 13
29 19 79 42 229 179 313 286 81 103 167 259 197 360 7 22 15 47 19 55 3 8 7
22 8 30 3 16 18 76 31 125 12 44 14 14915 2 14995 -20 134 -48 228 -111 368
-24 55 -102 188 -118 202 -3 3 -17 21 -32 41 -68 91 -226 231 -333 296 -138
82 -303 142 -465 168 -71 12 -3153 14 -19255 13 -11359 0 -19188 -4 -19215 -9z"/>
</g>
</svg>
